mtllib railTube.mtl
o railTube
v 1.000000 0.000000 0.000000
v 1.000000 0.000000 1.000000
v 0.809017 0.587785 0.000000
v 0.809017 0.587785 1.000000
v 0.309017 0.951057 0.000000
v 0.309017 0.951057 1.000000
v -0.309017 0.951057 0.000000
v -0.309017 0.951057 1.000000
v -0.809017 0.587785 0.000000
v -0.809017 0.587785 1.000000
v -1.000000 0.000000 0.000000
v -1.000000 0.000000 1.000000
v -0.809017 -0.587785 0.000000
v -0.809017 -0.587785 1.000000
v -0.309017 -0.951057 0.000000
v -0.309017 -0.951057 1.000000
v 0.309017 -0.951057 0.000000
v 0.309017 -0.951057 1.000000
v 0.809017 -0.587785 0.000000
v 0.809017 -0.587785 1.000000
vt 0.500000 0.500000
vn 1.000000 0.000000 0.000000
vn 0.809017 0.587785 0.000000
vn 0.309017 0.951057 0.000000
vn -0.309017 0.951057 0.000000
vn -0.809017 0.587785 0.000000
vn -1.000000 0.000000 0.000000
vn -0.809017 -0.587785 0.000000
vn -0.309017 -0.951057 0.000000
vn 0.309017 -0.951057 0.000000
vn 0.809017 -0.587785 0.000000
usemtl Material
s off
f 1/1/1 3/1/2 4/1/2 2/1/1
f 3/1/2 5/1/3 6/1/3 4/1/2
f 5/1/3 7/1/4 8/1/4 6/1/3
f 7/1/4 9/1/5 10/1/5 8/1/4
f 9/1/5 11/1/6 12/1/6 10/1/5
f 11/1/6 13/1/7 14/1/7 12/1/6
f 13/1/7 15/1/8 16/1/8 14/1/7
f 15/1/8 17/1/9 18/1/9 16/1/8
f 17/1/9 19/1/10 20/1/10 18/1/9
f 19/1/10 1/1/1 2/1/1 20/1/10
