mtllib bullseye.mtl
o bullseye
v 0.000000 0.000000 -0.060000
v 0.000000 0.000000 0.060000
v 1.000000 0.000000 -0.060000
v 1.000000 0.000000 0.060000
v 0.987688 0.156434 -0.060000
v 0.987688 0.156434 0.060000
v 0.951057 0.309017 -0.060000
v 0.951057 0.309017 0.060000
v 0.891007 0.453990 -0.060000
v 0.891007 0.453990 0.060000
v 0.809017 0.587785 -0.060000
v 0.809017 0.587785 0.060000
v 0.707107 0.707107 -0.060000
v 0.707107 0.707107 0.060000
v 0.587785 0.809017 -0.060000
v 0.587785 0.809017 0.060000
v 0.453990 0.891007 -0.060000
v 0.453990 0.891007 0.060000
v 0.309017 0.951057 -0.060000
v 0.309017 0.951057 0.060000
v 0.156434 0.987688 -0.060000
v 0.156434 0.987688 0.060000
v 0.000000 1.000000 -0.060000
v 0.000000 1.000000 0.060000
v -0.156434 0.987688 -0.060000
v -0.156434 0.987688 0.060000
v -0.309017 0.951057 -0.060000
v -0.309017 0.951057 0.060000
v -0.453990 0.891007 -0.060000
v -0.453990 0.891007 0.060000
v -0.587785 0.809017 -0.060000
v -0.587785 0.809017 0.060000
v -0.707107 0.707107 -0.060000
v -0.707107 0.707107 0.060000
v -0.809017 0.587785 -0.060000
v -0.809017 0.587785 0.060000
v -0.891007 0.453990 -0.060000
v -0.891007 0.453990 0.060000
v -0.951057 0.309017 -0.060000
v -0.951057 0.309017 0.060000
v -0.987688 0.156434 -0.060000
v -0.987688 0.156434 0.060000
v -1.000000 0.000000 -0.060000
v -1.000000 0.000000 0.060000
v -0.987688 -0.156434 -0.060000
v -0.987688 -0.156434 0.060000
v -0.951057 -0.309017 -0.060000
v -0.951057 -0.309017 0.060000
v -0.891007 -0.453990 -0.060000
v -0.891007 -0.453990 0.060000
v -0.809017 -0.587785 -0.060000
v -0.809017 -0.587785 0.060000
v -0.707107 -0.707107 -0.060000
v -0.707107 -0.707107 0.060000
v -0.587785 -0.809017 -0.060000
v -0.587785 -0.809017 0.060000
v -0.453990 -0.891007 -0.060000
v -0.453990 -0.891007 0.060000
v -0.309017 -0.951057 -0.060000
v -0.309017 -0.951057 0.060000
v -0.156434 -0.987688 -0.060000
v -0.156434 -0.987688 0.060000
v -0.000000 -1.000000 -0.060000
v -0.000000 -1.000000 0.060000
v 0.156434 -0.987688 -0.060000
v 0.156434 -0.987688 0.060000
v 0.309017 -0.951057 -0.060000
v 0.309017 -0.951057 0.060000
v 0.453990 -0.891007 -0.060000
v 0.453990 -0.891007 0.060000
v 0.587785 -0.809017 -0.060000
v 0.587785 -0.809017 0.060000
v 0.707107 -0.707107 -0.060000
v 0.707107 -0.707107 0.060000
v 0.809017 -0.587785 -0.060000
v 0.809017 -0.587785 0.060000
v 0.891007 -0.453990 -0.060000
v 0.891007 -0.453990 0.060000
v 0.951057 -0.309017 -0.060000
v 0.951057 -0.309017 0.060000
v 0.987688 -0.156434 -0.060000
v 0.987688 -0.156434 0.060000
vt 0.500000 0.500000
vt 0.997500 0.500000
vt 0.991375 0.577826
vt 0.973151 0.653736
vt 0.943276 0.725860
vt 0.902486 0.792423
vt 0.851786 0.851786
vt 0.792423 0.902486
vt 0.725860 0.943276
vt 0.653736 0.973151
vt 0.577826 0.991375
vt 0.500000 0.997500
vt 0.422174 0.991375
vt 0.346264 0.973151
vt 0.274140 0.943276
vt 0.207577 0.902486
vt 0.148214 0.851786
vt 0.097514 0.792423
vt 0.056724 0.725860
vt 0.026849 0.653736
vt 0.008625 0.577826
vt 0.002500 0.500000
vt 0.008625 0.422174
vt 0.026849 0.346264
vt 0.056724 0.274140
vt 0.097514 0.207577
vt 0.148214 0.148214
vt 0.207577 0.097514
vt 0.274140 0.056724
vt 0.346264 0.026849
vt 0.422174 0.008625
vt 0.500000 0.002500
vt 0.577826 0.008625
vt 0.653736 0.026849
vt 0.725860 0.056724
vt 0.792423 0.097514
vt 0.851786 0.148214
vt 0.902486 0.207577
vt 0.943276 0.274140
vt 0.973151 0.346264
vt 0.991375 0.422174
vt 0.985000 0.500000
vn 0.000000 0.000000 -1.000000
vn 0.000000 0.000000 1.000000
vn 0.996917 0.078459 0.000000
vn 0.972370 0.233445 0.000000
vn 0.923880 0.382683 0.000000
vn 0.852640 0.522499 0.000000
vn 0.760406 0.649448 0.000000
vn 0.649448 0.760406 0.000000
vn 0.522499 0.852640 0.000000
vn 0.382683 0.923880 0.000000
vn 0.233445 0.972370 0.000000
vn 0.078459 0.996917 0.000000
vn -0.078459 0.996917 0.000000
vn -0.233445 0.972370 0.000000
vn -0.382683 0.923880 0.000000
vn -0.522499 0.852640 0.000000
vn -0.649448 0.760406 0.000000
vn -0.760406 0.649448 0.000000
vn -0.852640 0.522499 0.000000
vn -0.923880 0.382683 0.000000
vn -0.972370 0.233445 0.000000
vn -0.996917 0.078459 0.000000
vn -0.996917 -0.078459 0.000000
vn -0.972370 -0.233445 0.000000
vn -0.923880 -0.382683 0.000000
vn -0.852640 -0.522499 0.000000
vn -0.760406 -0.649448 0.000000
vn -0.649448 -0.760406 0.000000
vn -0.522499 -0.852640 0.000000
vn -0.382683 -0.923880 0.000000
vn -0.233445 -0.972370 0.000000
vn -0.078459 -0.996917 0.000000
vn 0.078459 -0.996917 0.000000
vn 0.233445 -0.972370 0.000000
vn 0.382683 -0.923880 0.000000
vn 0.522499 -0.852640 0.000000
vn 0.649448 -0.760406 0.000000
vn 0.760406 -0.649448 0.000000
vn 0.852640 -0.522499 0.000000
vn 0.923880 -0.382683 0.000000
vn 0.972370 -0.233445 0.000000
vn 0.996917 -0.078459 0.000000
usemtl Material
s off
f 1/1/1 5/3/1 3/2/1
f 2/1/2 4/2/2 6/3/2
f 1/1/1 7/4/1 5/3/1
f 2/1/2 6/3/2 8/4/2
f 1/1/1 9/5/1 7/4/1
f 2/1/2 8/4/2 10/5/2
f 1/1/1 11/6/1 9/5/1
f 2/1/2 10/5/2 12/6/2
f 1/1/1 13/7/1 11/6/1
f 2/1/2 12/6/2 14/7/2
f 1/1/1 15/8/1 13/7/1
f 2/1/2 14/7/2 16/8/2
f 1/1/1 17/9/1 15/8/1
f 2/1/2 16/8/2 18/9/2
f 1/1/1 19/10/1 17/9/1
f 2/1/2 18/9/2 20/10/2
f 1/1/1 21/11/1 19/10/1
f 2/1/2 20/10/2 22/11/2
f 1/1/1 23/12/1 21/11/1
f 2/1/2 22/11/2 24/12/2
f 1/1/1 25/13/1 23/12/1
f 2/1/2 24/12/2 26/13/2
f 1/1/1 27/14/1 25/13/1
f 2/1/2 26/13/2 28/14/2
f 1/1/1 29/15/1 27/14/1
f 2/1/2 28/14/2 30/15/2
f 1/1/1 31/16/1 29/15/1
f 2/1/2 30/15/2 32/16/2
f 1/1/1 33/17/1 31/16/1
f 2/1/2 32/16/2 34/17/2
f 1/1/1 35/18/1 33/17/1
f 2/1/2 34/17/2 36/18/2
f 1/1/1 37/19/1 35/18/1
f 2/1/2 36/18/2 38/19/2
f 1/1/1 39/20/1 37/19/1
f 2/1/2 38/19/2 40/20/2
f 1/1/1 41/21/1 39/20/1
f 2/1/2 40/20/2 42/21/2
f 1/1/1 43/22/1 41/21/1
f 2/1/2 42/21/2 44/22/2
f 1/1/1 45/23/1 43/22/1
f 2/1/2 44/22/2 46/23/2
f 1/1/1 47/24/1 45/23/1
f 2/1/2 46/23/2 48/24/2
f 1/1/1 49/25/1 47/24/1
f 2/1/2 48/24/2 50/25/2
f 1/1/1 51/26/1 49/25/1
f 2/1/2 50/25/2 52/26/2
f 1/1/1 53/27/1 51/26/1
f 2/1/2 52/26/2 54/27/2
f 1/1/1 55/28/1 53/27/1
f 2/1/2 54/27/2 56/28/2
f 1/1/1 57/29/1 55/28/1
f 2/1/2 56/28/2 58/29/2
f 1/1/1 59/30/1 57/29/1
f 2/1/2 58/29/2 60/30/2
f 1/1/1 61/31/1 59/30/1
f 2/1/2 60/30/2 62/31/2
f 1/1/1 63/32/1 61/31/1
f 2/1/2 62/31/2 64/32/2
f 1/1/1 65/33/1 63/32/1
f 2/1/2 64/32/2 66/33/2
f 1/1/1 67/34/1 65/33/1
f 2/1/2 66/33/2 68/34/2
f 1/1/1 69/35/1 67/34/1
f 2/1/2 68/34/2 70/35/2
f 1/1/1 71/36/1 69/35/1
f 2/1/2 70/35/2 72/36/2
f 1/1/1 73/37/1 71/36/1
f 2/1/2 72/36/2 74/37/2
f 1/1/1 75/38/1 73/37/1
f 2/1/2 74/37/2 76/38/2
f 1/1/1 77/39/1 75/38/1
f 2/1/2 76/38/2 78/39/2
f 1/1/1 79/40/1 77/39/1
f 2/1/2 78/39/2 80/40/2
f 1/1/1 81/41/1 79/40/1
f 2/1/2 80/40/2 82/41/2
f 1/1/1 3/2/1 81/41/1
f 2/1/2 82/41/2 4/2/2
f 3/42/3 5/42/3 6/42/3 4/42/3
f 5/42/4 7/42/4 8/42/4 6/42/4
f 7/42/5 9/42/5 10/42/5 8/42/5
f 9/42/6 11/42/6 12/42/6 10/42/6
f 11/42/7 13/42/7 14/42/7 12/42/7
f 13/42/8 15/42/8 16/42/8 14/42/8
f 15/42/9 17/42/9 18/42/9 16/42/9
f 17/42/10 19/42/10 20/42/10 18/42/10
f 19/42/11 21/42/11 22/42/11 20/42/11
f 21/42/12 23/42/12 24/42/12 22/42/12
f 23/42/13 25/42/13 26/42/13 24/42/13
f 25/42/14 27/42/14 28/42/14 26/42/14
f 27/42/15 29/42/15 30/42/15 28/42/15
f 29/42/16 31/42/16 32/42/16 30/42/16
f 31/42/17 33/42/17 34/42/17 32/42/17
f 33/42/18 35/42/18 36/42/18 34/42/18
f 35/42/19 37/42/19 38/42/19 36/42/19
f 37/42/20 39/42/20 40/42/20 38/42/20
f 39/42/21 41/42/21 42/42/21 40/42/21
f 41/42/22 43/42/22 44/42/22 42/42/22
f 43/42/23 45/42/23 46/42/23 44/42/23
f 45/42/24 47/42/24 48/42/24 46/42/24
f 47/42/25 49/42/25 50/42/25 48/42/25
f 49/42/26 51/42/26 52/42/26 50/42/26
f 51/42/27 53/42/27 54/42/27 52/42/27
f 53/42/28 55/42/28 56/42/28 54/42/28
f 55/42/29 57/42/29 58/42/29 56/42/29
f 57/42/30 59/42/30 60/42/30 58/42/30
f 59/42/31 61/42/31 62/42/31 60/42/31
f 61/42/32 63/42/32 64/42/32 62/42/32
f 63/42/33 65/42/33 66/42/33 64/42/33
f 65/42/34 67/42/34 68/42/34 66/42/34
f 67/42/35 69/42/35 70/42/35 68/42/35
f 69/42/36 71/42/36 72/42/36 70/42/36
f 71/42/37 73/42/37 74/42/37 72/42/37
f 73/42/38 75/42/38 76/42/38 74/42/38
f 75/42/39 77/42/39 78/42/39 76/42/39
f 77/42/40 79/42/40 80/42/40 78/42/40
f 79/42/41 81/42/41 82/42/41 80/42/41
f 81/42/42 3/42/42 4/42/42 82/42/42
